<?xml version="1.0" encoding="utf-8"?>
<!-- Generator: Adobe Illustrator 15.0.2, SVG Export Plug-In . SVG Version: 6.00 Build 0)  -->
<!DOCTYPE svg PUBLIC "-//W3C//DTD SVG 1.0//EN" "http://www.w3.org/TR/2001/REC-SVG-20010904/DTD/svg10.dtd">
<svg version="1.0" id="Layer_1" xmlns="http://www.w3.org/2000/svg" xmlns:xlink="http://www.w3.org/1999/xlink" x="0px" y="0px"
	 width="2557.27px" height="2565.22px" viewBox="0 0 2557.27 2565.22" enable-background="new 0 0 2557.27 2565.22"
	 xml:space="preserve">
<g id="_x31_0_x22__Tablet">
	<path fill="#231F20" d="M2231.371,1201.779H951.401c-41.851,0-75.898-34.048-75.898-75.898V325.899
		c0-41.851,34.048-75.898,75.898-75.898h1279.97c41.851,0,75.898,34.048,75.898,75.898v799.981
		C2307.27,1167.731,2273.222,1201.779,2231.371,1201.779z"/>
	<g>
		<path fill="#FFFFFF" d="M2231.371,269.185c31.273,0,56.715,25.442,56.715,56.715v799.981c0,31.272-25.441,56.715-56.715,56.715
			H951.401c-31.272,0-56.715-25.442-56.715-56.715V325.899c0-31.272,25.442-56.715,56.715-56.715H2231.371 M2231.371,266.185
			H951.401c-32.927,0-59.715,26.788-59.715,59.715v799.981c0,32.927,26.788,59.715,59.715,59.715h1279.97
			c32.927,0,59.715-26.788,59.715-59.715V325.899C2291.086,292.973,2264.298,266.185,2231.371,266.185L2231.371,266.185z"/>
	</g>
	<g>
		<rect x="949.886" y="324.39" fill="#FFFFFF" width="1283" height="803"/>
		<path fill="#FFFFFF" d="M2231.386,325.89v800h-1280v-800H2231.386 M2234.386,322.89h-3h-1280h-3v3v800v3h3h1280h3v-3v-800V322.89
			L2234.386,322.89z"/>
	</g>
	<path fill="none" stroke="#FFFFFF" stroke-width="3" d="M1591.386,310.613c-8.276,0-15.011-6.75-15.011-15.047
		c0-8.296,6.734-15.047,15.011-15.047c8.277,0,15.012,6.751,15.012,15.047C1606.397,303.862,1599.663,310.613,1591.386,310.613z"/>
	<rect x="951.401" y="1070.058" fill="#231F20" width="1279.97" height="55.823"/>
</g>
<g id="_x37__x22__Tablet">
	<path fill="#231F20" d="M2118.382,2163.106h-1023.97c-41.851,0-75.898-34.048-75.898-75.898v-599.981
		c0-41.851,34.048-75.898,75.898-75.898h1023.97c41.85,0,75.898,34.048,75.898,75.898v599.981
		C2194.28,2129.059,2160.231,2163.106,2118.382,2163.106z"/>
	<g>
		<path fill="#FFFFFF" d="M2118.382,1430.512c31.273,0,56.715,25.442,56.715,56.715v599.981c0,31.272-25.441,56.715-56.715,56.715
			h-1023.97c-31.272,0-56.715-25.442-56.715-56.715v-599.981c0-31.272,25.442-56.715,56.715-56.715H2118.382 M2118.382,1427.512
			h-1023.97c-32.927,0-59.715,26.788-59.715,59.715v599.981c0,32.927,26.788,59.715,59.715,59.715h1023.97
			c32.927,0,59.715-26.788,59.715-59.715v-599.981C2178.097,1454.3,2151.309,1427.512,2118.382,1427.512L2118.382,1427.512z"/>
	</g>
	<g>
		<rect x="1092.896" y="1485.718" fill="#FFFFFF" width="1027.001" height="602.999"/>
		<path fill="#FFFFFF" d="M2118.397,1487.218v599.999H1094.396v-599.999H2118.397 M2121.397,1484.218h-3H1094.396h-3v3v599.999v3h3
			h1024.001h3v-3v-599.999V1484.218L2121.397,1484.218z"/>
	</g>
	<path fill="none" stroke="#FFFFFF" stroke-width="3" d="M1606.396,1471.94c-8.277,0-15.011-6.751-15.011-15.048
		c0-8.296,6.734-15.048,15.011-15.048s15.011,6.752,15.011,15.048C1621.408,1465.189,1614.673,1471.94,1606.396,1471.94z"/>
	<rect x="1094.412" y="2031.386" fill="#231F20" width="1023.97" height="55.822"/>
</g>
<g id="Small_Handset">
	<path fill="#231F20" d="M638.641,353.435c-0.329-24.343-2.396-48.913-15.187-63.736c-12.929-14.986-28.902-18.38-41.738-21.108
		c-14.518-3.083-41.219-7.304-85.983-9.899c-20.475-1.186-36.542-1.714-52.095-1.714c-13.769,0-26.201,0.396-41.939,0.897
		l-7.657,0.241c-30.292,0.945-91.291,10.773-100.688,13.7c-15.497,4.827-23.597,10.746-30.954,22.62
		c-6.648,10.728-7.988,29.173-8.492,36.117c-0.055,0.748-0.099,1.364-0.14,1.817c-1.323,14.792-1.567,45.215-1.602,51.165
		c0,0-0.382,483.339-0.235,493.405c0.038,2.578,0.051,4.727,0.063,6.696l0.005,0.692c0.054,9.696,0.086,15.549,2.573,48.66
		c2.718,36.187,9.689,50.865,19.32,61.77c8.688,9.842,20.217,15.713,37.381,19.035c1.895,0.368,3.673,0.723,5.412,1.07
		c13.234,2.641,23.688,4.727,60.14,6.646c3.694,0.193,7.275,0.39,10.803,0.588c16.6,0.921,32.279,1.792,53.264,1.792
		c14.896,0,31.371-0.44,50.365-1.346c66.147-3.153,98.891-6.913,118.057-20.855c18.6-13.532,22.909-33.763,25.762-47.162l0.12-0.569
		c3.372-15.818,3.445-51.611,3.445-62.362C638.641,822.225,638.641,398.058,638.641,353.435z"/>
	<path fill="none" stroke="#FFFFFF" stroke-width="3" d="M640.947,922.112l-0.281,1.875c-0.072,0.478-0.702,4.665-1.37,8.28
		c-1.277,6.9-3.504,16.453-6.858,22.775c-3.762,7.088-7.314,13.785-25.246,24.332c-13.561,7.974-44.078,14.006-53.068,15.188
		c-10.188,1.34-47.461,4.192-65.38,5.005c-16.789,0.761-25.233,0.992-36.14,0.992l-3.567-0.008l-3.641,0.007
		c-18.312,0-31.146-0.512-41.738-0.991c-17.919-0.812-55.19-3.665-65.378-5.005c-8.989-1.181-39.506-7.211-53.066-15.188
		c-17.932-10.547-21.485-17.241-25.249-24.331c-3.354-6.324-5.581-15.876-6.858-22.776c-0.679-3.678-1.283-7.586-1.335-7.917
		l-0.29-1.878"/>
	<g>
		<path fill="#FFFFFF" d="M431.933,269.931c10.201,0,27.874,0.14,36.709,0.24c7.614,0.088,18.293,0.725,26.884,1.236l0.5,0.028
			c2.512,0.15,4.87,0.29,6.96,0.405c8.472,0.461,16.266,0.935,18.556,1.641c1.722,0.531,1.806,1.179,1.945,2.255l0.032,0.244
			c0.188,1.366-0.313,2.429-1.491,3.162c-0.987,0.615-1.323,0.715-2.397,0.715c-0.333,0-0.727-0.009-1.237-0.024l-1.704-0.035
			c-3.76-0.057-11.223-0.741-18.543-1.436c-6.699-0.639-23.176-1.326-32.005-1.557c-8.845-0.23-26.277-0.23-32.84-0.23
			c-4.927,0-12.207,0.246-18.626,0.462l-0.784,0.026l-0.321,0.011c-2.095,0.07-4.106,0.138-5.936,0.191
			c-5.415,0.16-11.042,0.538-16.006,0.872l-0.072,0.005l-0.324,0.023l-0.772,0.051c-1.764,0.118-3.423,0.229-4.936,0.315
			c-1.136,0.066-2.321,0.142-3.51,0.219l-0.379,0.025c-3.293,0.214-6.697,0.435-9.014,0.435c-1.104,0-1.898-0.05-2.367-0.149
			c-0.919-0.193-1.602-0.633-2.027-1.306c-0.586-0.927-0.539-2.034-0.419-2.538c0.204-0.858,1.296-2.674,2.896-2.985
			c1.384-0.269,5.948-0.476,11.28-0.719l4.125-0.19c7.029-0.332,32.182-1.323,41.398-1.381
			C428.767,269.935,430.263,269.931,431.933,269.931 M431.933,266.931c-1.676,0-3.177,0.004-4.441,0.01
			c-9.305,0.059-34.499,1.052-41.524,1.384l-4.121,0.19c-5.869,0.267-10.109,0.459-11.714,0.771
			c-3.053,0.592-4.836,3.524-5.243,5.234c-0.297,1.254-0.244,3.182,0.802,4.836c0.862,1.364,2.226,2.277,3.945,2.639
			c0.689,0.146,1.637,0.213,2.984,0.213c2.419,0,5.883-0.225,9.232-0.442l0.357-0.023c1.181-0.077,2.358-0.152,3.487-0.218
			c1.737-0.099,3.67-0.23,5.734-0.368l0.334-0.023c4.957-0.333,10.576-0.712,15.957-0.871c1.926-0.056,4.055-0.128,6.27-0.202
			l0.783-0.026c6.406-0.216,13.667-0.461,18.527-0.461c6.552,0,23.956,0,32.762,0.229c8.775,0.229,25.146,0.91,31.798,1.544
			c7.388,0.702,14.923,1.391,18.782,1.449l1.687,0.035c0.518,0.016,0.941,0.025,1.299,0.025c1.634,0,2.527-0.262,3.983-1.168
			c2.177-1.354,3.226-3.59,2.878-6.117l-0.029-0.222c-0.164-1.271-0.47-3.635-4.035-4.735c-2.387-0.736-8.365-1.175-19.277-1.77
			c-2.084-0.115-4.438-0.254-6.944-0.404l-0.511-0.029c-8.629-0.514-19.367-1.152-27.018-1.241
			C459.904,267.071,442.253,266.931,431.933,266.931L431.933,266.931z"/>
	</g>
	<path fill="none" stroke="#FFFFFF" stroke-width="3" d="M445.643,987.952c-11.699,0-21.22-9.546-21.22-21.277
		c0-11.733,9.521-21.277,21.22-21.277c11.702,0,21.221,9.544,21.221,21.277C466.864,978.406,457.344,987.952,445.643,987.952"/>
	<g>
		<rect x="284.144" y="337.931" fill="#FFFFFF" width="323" height="536.333"/>
		<path fill="#FFFFFF" d="M605.644,339.431v533.333h-320V339.431H605.644 M608.644,336.431h-3h-320h-3v3v533.333v3h3h320h3v-3
			V339.431V336.431L608.644,336.431z"/>
	</g>
	<g>
		<path fill="#FFFFFF" d="M444.618,286.874c20.732,0,40.963,0.717,61.852,2.192c16.037,1.132,22.539,1.707,44.874,4.361
			c22.964,2.73,37.234,5.458,46.272,8.844c9.02,3.375,18.215,7.517,22.892,17.642c4.664,10.098,5.272,24.739,5.52,40.12
			c0.141,8.725,0.492,57.03,0.776,95.845l0.017,2.385c0.173,23.873,0.312,42.728,0.355,46.401
			c0.117,10.022,0.228,207.919,0.228,216.126c0,4.869,0.025,31.566,0.052,59.639l0.023,24.958
			c0.021,23.082,0.039,42.723,0.039,46.233l0.01,3.779c0.042,11.215,0.119,32.094-1.44,38.838
			c-1.78,7.698-8.244,17.708-21.044,22.719c-9.945,3.891-26.667,7.543-48.354,10.562c-11.728,1.626-51.374,5.173-72.876,6.077
			c-10.138,0.424-24.322,0.659-39.936,0.659c-14.254,0-27.824-0.205-36.3-0.544c-16.596-0.67-49.325-3.385-61.491-4.595
			c-11.772-1.168-32.573-4.617-37.803-5.818l-2.013-0.453c-5.668-1.266-15.158-3.381-21.724-6.917
			c-7.469-4.026-9.602-5.683-15.219-14.077c-4.7-7.022-4.478-21.854-4.344-30.715l0.003-0.195c0.02-1.274,0.038-2.434,0.038-3.438
			c0-8.102-0.566-120.259-0.689-136.374c-0.113-14.793-0.229-94.735-0.229-104.809c0-2.889-0.045-15.856-0.105-32.624
			c-0.126-36.406-0.318-102.758-0.238-110.091c0.037-3.612,0.074-16.622,0.123-33.202l0.004-1.245
			c0.094-32.277,0.221-76.484,0.446-87.159c0.034-1.649,0.062-3.271,0.087-4.868c0.227-13.962,0.424-26.02,5.927-39.261
			c5.95-14.316,25.854-19.852,53.91-23.758c26.5-3.691,67.831-6.483,105.295-7.112C434.558,286.917,439.625,286.874,444.618,286.874
			 M444.618,283.874c-5.001,0-10.086,0.043-15.113,0.128c-37.576,0.63-79.049,3.433-105.659,7.14
			c-29.075,4.048-49.77,9.947-56.267,25.578c-5.725,13.776-5.925,26.097-6.156,40.364c-0.026,1.593-0.053,3.209-0.087,4.854
			c-0.225,10.652-0.353,54.645-0.446,86.768l-0.001,0.445l-0.004,1.244l-0.002,0.76c-0.047,16.132-0.084,28.875-0.121,32.421
			c-0.083,7.611,0.125,77.486,0.238,110.132c0.058,16.105,0.105,29.675,0.105,32.613c0,10.084,0.116,90.068,0.229,104.832
			c0.123,16.079,0.689,128.219,0.689,136.351c0,0.979-0.018,2.108-0.037,3.347l-0.003,0.242c-0.139,9.21-0.372,24.627,4.85,32.428
			c5.956,8.901,8.404,10.799,16.288,15.049c6.922,3.727,16.654,5.9,22.468,7.198l2.034,0.458c5.271,1.21,26.278,4.697,38.166,5.876
			c12.167,1.209,44.961,3.932,61.666,4.607c8.541,0.342,22.156,0.547,36.421,0.547c15.646,0,29.873-0.235,40.062-0.661
			c21.574-0.907,61.38-4.469,73.163-6.103c21.919-3.052,38.875-6.766,49.035-10.74c13.888-5.436,20.922-16.394,22.875-24.837
			c1.511-6.537,1.575-23.83,1.517-39.525l-0.01-3.776c0-2.751-0.012-15.48-0.026-32.014l-0.013-14.213l-0.023-24.959
			c-0.027-28.071-0.052-54.768-0.052-59.636c0-8.711-0.111-206.141-0.228-216.162c-0.044-3.633-0.181-22.327-0.355-46.388
			l-0.017-2.384l-0.021-2.963c-0.275-37.599-0.618-84.392-0.755-92.91c-0.252-15.714-0.886-30.699-5.795-41.329
			c-5.154-11.158-15.382-15.758-24.564-19.194c-9.274-3.474-23.76-6.253-46.969-9.013c-22.378-2.659-28.904-3.237-45.017-4.375
			C485.72,284.593,465.419,283.874,444.618,283.874L444.618,283.874z"/>
	</g>
	<rect x="285.645" y="339.207" fill="#231F20" width="319.998" height="24.185"/>
	<path fill-rule="evenodd" clip-rule="evenodd" fill="#FFFFFF" d="M318.743,891.191c0,0-6.818,6.286-7.376,6.774
		c-0.555,0.492-0.138,1.467,0.559,1.882c0.695,0.415,6.891,6.876,6.891,6.876l3.062-0.148l-6.334-6.39c0,0,6.82-0.09,9.604,0.11
		c2.783,0.202,5.082,1.66,6.682,2.839c1.602,1.18,3.478,3.475,3.478,3.475l2.926-0.009c0,0-1.812-3.269-5.638-6.114
		c-3.83-2.847-6.822-2.628-8.912-2.763c-2.086-0.134-8.349-0.048-8.349-0.048l6.471-6.495L318.743,891.191z"/>
	<rect x="392.356" y="888.479" fill-rule="evenodd" clip-rule="evenodd" fill="#FFFFFF" width="26.007" height="2.441"/>
	<rect x="399.31" y="895.032" fill-rule="evenodd" clip-rule="evenodd" fill="#FFFFFF" width="19.054" height="2.761"/>
	<rect x="399.31" y="901.099" fill-rule="evenodd" clip-rule="evenodd" fill="#FFFFFF" width="19.054" height="2.86"/>
	<rect x="399.31" y="907.514" fill-rule="evenodd" clip-rule="evenodd" fill="#FFFFFF" width="19.054" height="2.648"/>
	<polygon fill-rule="evenodd" clip-rule="evenodd" fill="#FFFFFF" points="487.511,887.038 473.048,901.12 474.717,902.724 
		487.722,889.967 500.443,902.583 502.182,901.191 496.55,895.754 496.55,888.922 494.326,888.922 494.326,893.453 	"/>
	<polygon fill-rule="evenodd" clip-rule="evenodd" fill="#FFFFFF" points="480.973,902.516 478.68,904.12 478.68,911.23 
		496.412,911.23 496.412,904.12 494.255,902.305 494.255,909.209 480.973,909.209 	"/>
	<path fill-rule="evenodd" clip-rule="evenodd" fill="#FFFFFF" d="M571.515,901.24l2.348,2.962v1.463c0,0,3.686,4.25,5.074,5.368
		c1.393,1.114,1.738,0.626,2.227,0.138c0.488-0.488,0.763-1.951,0.138-2.65c-0.626-0.697-4.938-5.576-4.938-5.576l-1.249,0.067
		l-1.637-2.091"/>
	<g>
		<path fill="#FFFFFF" d="M566.586,888.603c3.648,0,6.616,2.968,6.616,6.616s-2.968,6.616-6.616,6.616s-6.616-2.968-6.616-6.616
			S562.938,888.603,566.586,888.603 M566.586,885.603c-5.311,0-9.616,4.305-9.616,9.616s4.305,9.616,9.616,9.616
			s9.616-4.305,9.616-9.616S571.897,885.603,566.586,885.603L566.586,885.603z"/>
	</g>
</g>
<g id="Large_Handset">
	<path fill="#231F20" d="M673.591,1461.043c-14.578-14.986-32.588-18.381-47.061-21.108c-16.369-3.083-46.477-7.304-96.95-9.899
		c-22.281-1.145-39.93-1.675-56.9-1.71c-16.97,0.035-34.619,0.565-56.9,1.71c-50.474,2.596-80.581,6.816-96.95,9.899
		c-14.473,2.728-32.483,6.122-47.061,21.108c-14.422,14.822-16.753,39.393-17.124,63.735c0,44.624,0,588.79,0,658.161
		c0,10.75,0.083,46.543,3.885,62.361l0.135,0.569c3.218,13.398,8.076,33.63,29.048,47.161c21.61,13.943,58.53,17.703,133.114,20.855
		c19.343,0.818,36.362,1.255,51.852,1.332c15.49-0.077,32.509-0.514,51.852-1.332c74.584-3.152,111.504-6.912,133.114-20.855
		c20.972-13.531,25.831-33.763,29.048-47.161l0.135-0.569c3.802-15.818,3.885-51.611,3.885-62.361c0-69.371,0-613.537,0-658.161
		C690.344,1500.436,688.013,1475.865,673.591,1461.043z"/>
	<g>
		<path fill="#FFFFFF" d="M472.7,1438.325c16.802,0.035,34.199,0.559,56.366,1.696c49.911,2.567,79.543,6.714,95.613,9.74
			c13.767,2.595,29.372,5.535,41.744,18.254c11.974,12.306,13.949,34.584,14.292,56.838v658.086c0,39.165-2.26,54.418-3.608,60.024
			l-0.142,0.596c-3.008,12.524-7.135,29.71-24.74,41.069c-19.537,12.604-56.878,16.256-128.115,19.267
			c-19.208,0.812-36.032,1.246-51.43,1.323c-15.397-0.077-32.221-0.511-51.429-1.323c-71.238-3.011-108.579-6.662-128.116-19.267
			c-17.605-11.359-21.732-28.545-24.746-41.093l-0.129-0.546c-1.354-5.633-3.614-20.886-3.614-60.051v-658.086
			c0.342-22.254,2.318-44.532,14.291-56.837c12.373-12.72,27.978-15.66,41.746-18.255c16.068-3.026,45.7-7.173,95.612-9.74
			C438.46,1438.884,455.857,1438.36,472.7,1438.325 M472.707,1435.325H472.7h-0.006c-16.889,0.035-34.331,0.56-56.554,1.7
			c-50.081,2.576-79.854,6.745-96.013,9.788c-14.207,2.678-30.307,5.712-43.341,19.111c-12.71,13.062-14.788,36.021-15.14,58.883
			l0,658.132c0,39.477,2.316,55.008,3.697,60.752l0.127,0.537c3.134,13.05,7.424,30.91,26.039,42.921
			c20.12,12.981,57.826,16.709,129.615,19.743c19.268,0.815,36.127,1.249,51.541,1.326c15.444-0.077,32.303-0.511,51.572-1.326
			c71.789-3.034,109.495-6.762,129.615-19.743c18.615-12.011,22.901-29.858,26.031-42.89l0.143-0.602
			c1.377-5.728,3.689-21.242,3.689-60.719v-658.086c-0.352-22.908-2.43-45.866-15.142-58.93
			c-13.033-13.398-29.131-16.433-43.335-19.109c-16.164-3.044-45.939-7.213-96.018-9.789
			C506.997,1435.885,489.567,1435.36,472.707,1435.325L472.707,1435.325z"/>
	</g>
	<g>
		<path fill="#FFFFFF" d="M456.361,1471.519c11.529,0,31.394,0.157,41.302,0.271c8.57,0.098,20.592,0.813,30.257,1.39l0.569,0.033
			c2.824,0.168,5.476,0.325,7.827,0.454c9.554,0.521,18.347,1.056,20.965,1.861c2.168,0.67,2.292,1.63,2.45,2.851l0.035,0.27
			c0.23,1.671-0.41,3.029-1.851,3.926c-1.162,0.724-1.623,0.86-2.896,0.86c-0.377,0-0.824-0.01-1.399-0.026l-1.914-0.04
			c-4.237-0.064-12.645-0.834-20.891-1.617c-7.518-0.717-26.046-1.49-35.98-1.751c-9.945-0.258-29.553-0.258-36.935-0.258
			c-5.585,0-14.102,0.288-20.939,0.521l-0.885,0.028l-0.238,0.008c-2.401,0.081-4.708,0.158-6.803,0.219
			c-6.091,0.181-12.423,0.607-18.01,0.982l-0.062,0.004l-0.365,0.026l-1.025,0.068c-1.928,0.128-3.743,0.249-5.4,0.344
			c-1.277,0.074-2.609,0.159-3.946,0.247l-0.4,0.025c-3.536,0.23-7.543,0.491-10.191,0.491c-1.27,0-2.19-0.059-2.74-0.175
			c-1.137-0.239-1.985-0.79-2.521-1.638c-0.725-1.146-0.667-2.517-0.519-3.142c0.256-1.078,1.562-3.253,3.552-3.639
			c1.584-0.308,6.483-0.53,12.685-0.812l0.061-0.003l4.639-0.215c7.912-0.374,36.221-1.488,46.59-1.554
			C452.799,1471.522,454.482,1471.519,456.361,1471.519 M456.361,1468.519c-1.885,0-3.574,0.004-4.997,0.012
			c-10.468,0.066-38.811,1.184-46.715,1.557l-4.636,0.215c-6.603,0.3-11.373,0.516-13.178,0.866
			c-3.435,0.667-5.44,3.965-5.898,5.889c-0.334,1.411-0.274,3.581,0.902,5.44c0.97,1.535,2.504,2.562,4.438,2.97
			c0.775,0.164,1.841,0.239,3.357,0.239c2.722,0,6.618-0.252,10.386-0.497l0.402-0.026c1.328-0.087,2.652-0.172,3.922-0.245
			c1.954-0.111,4.129-0.26,6.451-0.414l0.376-0.026c5.577-0.375,11.897-0.801,17.952-0.98c2.167-0.062,4.562-0.144,7.053-0.228
			l0.88-0.028c7.207-0.244,15.375-0.519,20.843-0.519c7.372,0,26.95,0,36.857,0.257c9.872,0.259,28.29,1.024,35.773,1.738
			c8.311,0.789,16.788,1.564,21.13,1.631l1.897,0.039c0.583,0.018,1.059,0.027,1.461,0.027c1.839,0,2.843-0.294,4.481-1.313
			c2.449-1.524,3.629-4.039,3.238-6.882l-0.033-0.25c-0.185-1.429-0.529-4.089-4.54-5.327c-2.685-0.827-9.41-1.321-21.687-1.99
			c-2.345-0.129-4.992-0.286-7.812-0.454l-0.575-0.033c-9.708-0.578-21.788-1.296-30.396-1.395
			C487.829,1468.677,467.971,1468.519,456.361,1468.519L456.361,1468.519z"/>
	</g>
	<g>
		<rect x="290.286" y="1546.873" fill="#FFFFFF" width="363" height="643"/>
		<path fill="#FFFFFF" d="M651.786,1548.373v640h-360v-640H651.786 M654.786,1545.373h-3h-360h-3v3v640v3h3h360h3v-3v-640V1545.373
			L654.786,1545.373z"/>
	</g>
	<rect x="291.786" y="1548.373" fill="#231F20" width="360" height="24.184"/>
</g>
</svg>
